<?xml version="1.0" encoding="UTF-8"?>
<svg id="Capa_1" xmlns="http://www.w3.org/2000/svg" version="1.1" viewBox="0 0 256 256">
  <!-- Generator: Adobe Illustrator 30.0.0, SVG Export Plug-In . SVG Version: 2.1.1 Build 123)  -->
  <defs>
    <style>
      .st0 {
        fill: #fff;
      }
    </style>
  </defs>
  <path class="st0" d="M176.57,16.82H29.84C14.02,16.82,1.15,29.69,1.15,45.51v128.58c0,6.09,6.89,9.52,11.75,6.05l40.86-29.16c3.43-2.44,7.46-3.74,11.67-3.74h89.88c15.82,0,28.69-12.87,28.69-28.69V24.25c0-4.1-3.33-7.43-7.43-7.43ZM140.47,106.86H54.6c-4.1,0-7.43-3.32-7.43-7.43s3.33-7.43,7.43-7.43h85.88c4.1,0,7.43,3.33,7.43,7.43s-3.33,7.43-7.43,7.43ZM140.47,72.17H54.6c-4.1,0-7.43-3.32-7.43-7.43s3.33-7.43,7.43-7.43h85.88c4.1,0,7.43,3.33,7.43,7.43s-3.33,7.43-7.43,7.43Z"/>
  <path class="st0" d="M254.85,103.16v128.58c0,6.05-6.85,9.55-11.75,6.05l-40.86-29.15c-3.43-2.44-7.46-3.74-11.67-3.74h-89.88c-15.82,0-28.69-12.87-28.69-28.69v-14.09h83.32c24.02,0,43.55-19.54,43.55-43.55v-44.09h27.29c15.82,0,28.69,12.87,28.69,28.69h0Z"/>
</svg>