<?xml version="1.0" encoding="UTF-8"?>
<svg id="Layer_1" xmlns="http://www.w3.org/2000/svg" version="1.1" viewBox="0 0 256 256">
  <!-- Generator: Adobe Illustrator 30.0.0, SVG Export Plug-In . SVG Version: 2.1.1 Build 123)  -->
  <defs>
    <style>
      .st0 {
        fill: #fff;
      }
    </style>
  </defs>
  <path class="st0" d="M223.59,64.27h-63.73V.55l63.73,63.73Z"/>
  <path class="st0" d="M159.86,85.52c-11.73,0-21.24-9.52-21.24-21.24V.55H53.65c-11.73,0-21.24,9.51-21.24,21.24v212.41c0,11.73,9.51,21.24,21.24,21.24h148.69c11.72,0,21.24-9.5,21.24-21.23V85.52h-63.73ZM85.52,223.59h-21.24v-21.24h21.24v21.24ZM85.52,181.11h-21.24v-21.24h21.24v21.24ZM85.52,138.62h-21.24v-21.24h21.24v21.24ZM191.73,223.59h-84.97v-21.24h84.97v21.24ZM191.73,181.11h-84.97v-21.24h84.97v21.24ZM191.73,138.62h-84.97v-21.24h84.97v21.24Z"/>
</svg>